<?xml version="1.0" encoding="UTF-8"?>
<svg xmlns="http://www.w3.org/2000/svg" id="Avatar" viewBox="0 0 64 64" width="512" height="512"><path d="M48,23l1.82,24.51A7.97,7.97,0,0,0,44,45H38l-.44-5.24v-.01A12.988,12.988,0,0,0,45,28V23l-2.51-5.02A2.088,2.088,0,0,0,41,16.9,5,5,0,0,1,37,12a6,6,0,0,1-6,6H24.47a4.02,4.02,0,0,0-3.58,2.21L19,23v5a13.017,13.017,0,0,0,7.44,11.75v.01L26,45H20a7.97,7.97,0,0,0-5.82,2.51L16,23V19C16,7.5,23.16,3,32,3A15.979,15.979,0,0,1,48,19Z" style="fill:#78b9eb"/><path d="M52,53v8H12V53a8,8,0,0,1,8-8h6l6,11,6-11h6a8,8,0,0,1,8,8Z" style="fill:#78b9eb"/><path d="M50.79,47.11,49,23V19A16.969,16.969,0,0,0,32,2C21.2,2,15,8.2,15,19v3.93L13.21,47.11A8.972,8.972,0,0,0,11,53v8a1,1,0,0,0,1,1H52a1,1,0,0,0,1-1V53A8.972,8.972,0,0,0,50.79,47.11ZM17,23V19C17,5.95,26.4,4,32,4A14.988,14.988,0,0,1,47,19v4.07l1.65,22.24A8.9,8.9,0,0,0,44,44H38.92l-.31-3.67A13.986,13.986,0,0,0,46,28V23a1,1,0,0,0-.11-.45l-2.51-5.02a3.1,3.1,0,0,0-2.18-1.61,4.028,4.028,0,0,1-2.29-1.38A3.972,3.972,0,0,1,38,12a1,1,0,0,0-2,0,5,5,0,0,1-5,5H24.47a5.046,5.046,0,0,0-4.44,2.7l-1.86,2.74A1,1,0,0,0,18,23v5a13.936,13.936,0,0,0,4.1,9.9,14.119,14.119,0,0,0,3.29,2.44L25.08,44H20a8.9,8.9,0,0,0-4.65,1.31ZM32,40A12.018,12.018,0,0,1,20,28V23.31l1.72-2.54a1.091,1.091,0,0,0,.06-.11A3.044,3.044,0,0,1,24.47,19H31a7,7,0,0,0,6.09-3.55c.09.13.18.25.28.37a6.041,6.041,0,0,0,3.43,2.06,1.117,1.117,0,0,1,.8.55L44,23.24V28A12.01,12.01,0,0,1,32,40Zm4.98,4.78L32,53.91l-4.98-9.13.3-3.6a13.765,13.765,0,0,0,9.36,0ZM51,60H13V53a7.008,7.008,0,0,1,7-7h5.41l5.71,10.48a1,1,0,0,0,1.76,0L38.59,46H44a7.008,7.008,0,0,1,7,7Z" style="fill:#006df0"/><path d="M27,21a1,1,0,0,0-1,1v2a1,1,0,0,0,2,0V22A1,1,0,0,0,27,21Z" style="fill:#006df0"/><path d="M37,21a1,1,0,0,0-1,1v2a1,1,0,0,0,2,0V22A1,1,0,0,0,37,21Z" style="fill:#006df0"/></svg>
